<svg width="24" height="22" viewBox="0 0 24 22" fill="none" xmlns="http://www.w3.org/2000/svg">
<rect width="24" height="22" fill="black"/>
<g clip-path="url(#clip0_721_359)">
<rect width="1300" height="860" transform="translate(-1052 -110)" fill="#F0F0F0"/>
<g filter="url(#filter0_f_721_359)">
<ellipse cx="287.887" cy="114.568" rx="287.887" ry="114.568" transform="matrix(-1 0 0 1 107 -147.003)" fill="#3F64E9" fill-opacity="0.43"/>
</g>
<g filter="url(#filter1_f_721_359)">
<ellipse cx="348.5" cy="204" rx="348.5" ry="204" transform="matrix(-1 0 0 1 -42 -274.435)" fill="#E93F3F" fill-opacity="0.23"/>
</g>
<rect x="-923" y="-14.9679" width="1030" height="52.5219" rx="26.261" fill="white" fill-opacity="0.25"/>
<rect x="-922.5" y="-14.4679" width="1029" height="51.5219" rx="25.761" stroke="white" stroke-opacity="0.25"/>
<path fill-rule="evenodd" clip-rule="evenodd" d="M12 0.788696C5.37109 0.788696 0 5.60913 0 11.5584C0 16.3158 3.4375 20.3544 8.20703 21.7778C8.80859 21.8759 9.02734 21.5464 9.02734 21.2589C9.02734 21.003 9.01562 20.3264 9.01172 19.4289C5.67188 20.0775 4.96875 17.9845 4.96875 17.9845C4.42188 16.74 3.63672 16.4069 3.63672 16.4069C2.54688 15.7408 3.71875 15.7548 3.71875 15.7548C4.92188 15.832 5.55469 16.8627 5.55469 16.8627C6.625 18.5104 8.36328 18.0336 9.04688 17.7601C9.15625 17.0625 9.46875 16.5892 9.80859 16.3193C7.14453 16.0493 4.34375 15.1238 4.34375 10.9975C4.34375 9.81957 4.8125 8.85898 5.57812 8.10524C5.45703 7.8353 5.04297 6.73799 5.69531 5.25505C5.69531 5.25505 6.70312 4.96758 8.99609 6.35937C9.95312 6.12098 10.9805 6.00178 12 5.99828C13.0195 6.00178 14.0469 6.12098 15.0039 6.35937C17.2969 4.96758 18.3008 5.25505 18.3008 5.25505C18.957 6.73799 18.5469 7.8353 18.4219 8.10524C19.1914 8.85898 19.6523 9.81957 19.6523 10.9975C19.6523 15.1343 16.8477 16.0423 14.1758 16.3123C14.6055 16.6418 14.9883 17.3009 14.9883 18.3035C14.9883 19.7444 14.9766 20.9048 14.9766 21.2589C14.9766 21.5464 15.1914 21.8829 15.8008 21.7778C20.5664 20.3509 24 16.3158 24 11.5584C24 5.60913 18.6289 0.788696 12 0.788696Z" fill="#0D0D0D"/>
</g>
<defs>
<filter id="filter0_f_721_359" x="-708.775" y="-387.003" width="1055.77" height="709.136" filterUnits="userSpaceOnUse" color-interpolation-filters="sRGB">
<feFlood flood-opacity="0" result="BackgroundImageFix"/>
<feBlend mode="normal" in="SourceGraphic" in2="BackgroundImageFix" result="shape"/>
<feGaussianBlur stdDeviation="120" result="effect1_foregroundBlur_721_359"/>
</filter>
<filter id="filter1_f_721_359" x="-979" y="-514.435" width="1177" height="888" filterUnits="userSpaceOnUse" color-interpolation-filters="sRGB">
<feFlood flood-opacity="0" result="BackgroundImageFix"/>
<feBlend mode="normal" in="SourceGraphic" in2="BackgroundImageFix" result="shape"/>
<feGaussianBlur stdDeviation="120" result="effect1_foregroundBlur_721_359"/>
</filter>
<clipPath id="clip0_721_359">
<rect width="1300" height="860" fill="white" transform="translate(-1052 -110)"/>
</clipPath>
</defs>
</svg>
