<svg width="51" height="50" viewBox="0 0 51 50" fill="none" xmlns="http://www.w3.org/2000/svg">
<path d="M50.4359 26.7838C50.4775 26.1944 50.5 25.5999 50.5 25C50.5 11.1929 39.3071 0 25.5 0C11.6929 0 0.5 11.1929 0.5 25C0.5 36.5009 8.2666 46.1864 18.8407 49.1017L50.4359 26.7838Z" fill="#FF822E"/>
<path d="M50.4373 26.7838L31.2622 7.6087L12.1318 42.3913L18.8422 49.1017C20.9625 49.6862 23.1952 50 25.5014 50C38.7087 50 49.5225 39.7583 50.4373 26.7838Z" fill="#FC6411"/>
<path d="M27.6818 32.6087L25.4731 7.6087H12.1318V30.4348L27.6818 32.6087Z" fill="white"/>
<path d="M38.8694 30.4348V15.2174L33.4347 13.0435L31.2607 7.6087H25.4717L25.5064 32.6087L38.8694 30.4348Z" fill="#E8E6E6"/>
<path d="M31.2607 15.2174V7.6087L38.8694 15.2174H31.2607Z" fill="white"/>
<path d="M38.871 30.4348H12.1318V42.3913H38.871V30.4348Z" fill="#CF3E00"/>
<path d="M24.5794 37.3225C24.5794 38.4236 23.892 39.0593 22.7908 39.0593C22.0592 39.0593 21.4679 38.7562 21.0098 38.2315L21.6157 37.352C21.9853 37.7364 22.3992 37.9286 22.7021 37.9286C23.0495 37.9286 23.2565 37.7143 23.2565 37.293V34.8836H21.4828V33.8193H24.5794V37.3225Z" fill="white"/>
<path d="M29.738 34.3442L29.2428 35.3714C28.6959 35.0535 28.0086 34.8319 27.5873 34.8319C27.2473 34.8319 27.0183 34.9576 27.0183 35.2089C27.0183 36.1031 29.7527 35.5933 29.7527 37.463C29.7527 38.4977 28.8363 39.0446 27.6834 39.0446C26.8188 39.0446 25.9318 38.7195 25.3184 38.2169L25.8282 37.2044C26.3604 37.67 27.1586 37.9805 27.6981 37.9805C28.1119 37.9805 28.3706 37.8253 28.3706 37.5296C28.3706 36.6132 25.6361 37.1602 25.6361 35.3273C25.6361 34.3738 26.4564 33.7678 27.6982 33.7678C28.4447 33.7677 29.206 33.9969 29.738 34.3442Z" fill="white"/>
</svg>
