<svg width="50" height="50" viewBox="0 0 50 50" fill="none" xmlns="http://www.w3.org/2000/svg">
<path d="M24.9325 0.00040871C22.8933 0.00988138 20.9459 0.183807 19.2324 0.48703C14.1846 1.37883 13.2681 3.24533 13.2681 6.68762V11.2338H25.1966V12.7492H13.2681H8.79148C5.32477 12.7492 2.28913 14.8328 1.33971 18.7968C0.244495 23.3404 0.19596 26.1757 1.33971 30.92C2.18766 34.4513 4.21257 36.9675 7.67927 36.9675H11.7805V31.5176C11.7805 27.5804 15.1871 24.1076 19.2324 24.1076H31.147C34.4636 24.1076 37.1111 21.3768 37.1111 18.046V6.68762C37.1111 3.455 34.384 1.02658 31.147 0.48703C29.0978 0.145917 26.9717 -0.00906396 24.9325 0.00040871ZM18.4816 3.65686C19.7138 3.65686 20.7199 4.67952 20.7199 5.93684C20.7199 7.18977 19.7138 8.20296 18.4816 8.20296C17.2451 8.20296 16.2433 7.18977 16.2433 5.93684C16.2433 4.67942 17.2451 3.65686 18.4816 3.65686Z" fill="url(#paint0_linear_30_2302)"/>
<path d="M38.5992 12.7491V18.046C38.5992 22.1527 35.1175 25.609 31.1474 25.609H19.2328C15.9692 25.609 13.2686 28.4022 13.2686 31.6706V43.029C13.2686 46.2616 16.0796 48.1631 19.2328 49.0905C23.0087 50.2008 26.6296 50.4014 31.1474 49.0905C34.1504 48.2211 37.1115 46.4713 37.1115 43.029V38.4828H25.197V36.9673H37.1115H43.0758C46.5425 36.9673 47.8344 34.5493 49.0401 30.9198C50.2855 27.1832 50.2325 23.59 49.0401 18.7966C48.1833 15.3454 46.547 12.7489 43.0758 12.7489H38.5992V12.7491ZM31.8982 41.5136C33.1347 41.5136 34.1364 42.5268 34.1364 43.7797C34.1364 45.0372 33.1347 46.0598 31.8982 46.0598C30.666 46.0598 29.6599 45.0372 29.6599 43.7797C29.6598 42.5268 30.6659 41.5136 31.8982 41.5136Z" fill="url(#paint1_linear_30_2302)"/>
<defs>
<linearGradient id="paint0_linear_30_2302" x1="-0.669088" y1="1.42193" x2="26.8428" y2="24.8838" gradientUnits="userSpaceOnUse">
<stop stop-color="#5A9FD4"/>
<stop offset="1" stop-color="#306998"/>
</linearGradient>
<linearGradient id="paint1_linear_30_2302" x1="37.1947" y1="39.468" x2="27.3286" y2="25.6321" gradientUnits="userSpaceOnUse">
<stop stop-color="#FFD43B"/>
<stop offset="1" stop-color="#FFE873"/>
</linearGradient>
</defs>
</svg>
