<svg width="14" height="14" viewBox="0 0 14 14" fill="none" xmlns="http://www.w3.org/2000/svg">
<g clip-path="url(#clip0_409_176)">
<path d="M3.39654 14.0001C2.50218 14.0002 1.65759 13.6458 1.00596 12.9942C0.323656 12.3118 -0.032742 11.4178 0.00236733 10.4768C0.0386524 9.50492 0.47771 8.57132 1.2721 7.77693L2.70239 6.34081C2.91551 6.12679 3.26176 6.12608 3.47578 6.33923C3.68977 6.55234 3.69051 6.89862 3.47737 7.11262L2.04631 8.54955C0.886635 9.70923 0.777206 11.2186 1.77941 12.2208C2.78164 13.2231 4.29098 13.1136 5.44981 11.9547L7.41546 9.98901C8.01125 9.39324 8.33982 8.71296 8.3656 8.02177C8.38925 7.38821 8.14633 6.78334 7.6816 6.31861C7.52588 6.16291 7.35358 6.03079 7.16948 5.92593C6.90703 5.77644 6.81546 5.44249 6.96495 5.18007C7.11446 4.91763 7.44841 4.82608 7.7108 4.97554C7.97981 5.12878 8.23019 5.32046 8.45501 5.54525C9.13732 6.22755 9.49372 7.12156 9.45861 8.06259C9.42233 9.03447 8.98327 9.96809 8.18888 10.7625L6.22322 12.7281C5.42881 13.5225 4.49524 13.9615 3.52336 13.9978C3.48103 13.9993 3.43868 14.0001 3.39654 14.0001ZM7.03511 8.82026C7.1846 8.55781 7.093 8.22386 6.83058 8.0744C6.64647 7.96954 6.47415 7.83741 6.31846 7.68175C5.31626 6.67952 5.42569 5.17017 6.58457 4.01129L8.55023 2.04566C9.70913 0.886811 11.2184 0.777355 12.2206 1.77956C13.2228 2.78176 13.1134 4.2911 11.9537 5.45078L10.5227 6.88771C10.3095 7.10171 10.3102 7.44799 10.5242 7.6611C10.7382 7.87425 11.0845 7.87348 11.2976 7.65952L12.7279 6.22337C13.5223 5.42898 13.9614 4.49539 13.9977 3.52354C14.0328 2.5825 13.6764 1.68847 12.9941 1.00617C12.3117 0.323832 11.4173 -0.0325109 10.4767 0.0025437C9.50482 0.0388288 8.57123 0.477886 7.77686 1.27228L5.81118 3.2379C5.01679 4.03229 4.57776 4.96589 4.54145 5.93774C4.50634 6.87877 4.86274 7.7728 5.54504 8.45514C5.76984 8.6799 6.02022 8.87155 6.28926 9.02481C6.37468 9.07346 6.46765 9.09659 6.55941 9.09659C6.74953 9.09656 6.93427 8.99725 7.03511 8.82026Z" fill="#25B81D"/>
</g>
<defs>
<clipPath id="clip0_409_176">
<rect width="14" height="14" fill="white"/>
</clipPath>
</defs>
</svg>
