<svg width="42" height="42" viewBox="0 0 42 42" fill="none" xmlns="http://www.w3.org/2000/svg">
<path d="M22.6832 36.2615H15.9519V16.0676H22.6832V19.4333C24.118 17.6078 26.2939 16.5196 28.6151 16.4665C32.7895 16.4896 36.1579 19.8866 36.1458 24.061V36.2615H29.4145V24.9024C29.1453 23.0221 27.5327 21.627 25.6332 21.631C24.8023 21.6573 24.0181 22.0211 23.4614 22.6384C22.9047 23.2558 22.6237 24.0733 22.6832 24.9024V36.2615ZM12.5863 36.2615H5.85498V16.0676H12.5863V36.2615ZM9.22062 12.702C7.36183 12.702 5.85498 11.1951 5.85498 9.33635C5.85498 7.47755 7.36183 5.9707 9.22062 5.9707C11.0794 5.9707 12.5863 7.47755 12.5863 9.33635C12.5863 10.229 12.2317 11.085 11.6005 11.7162C10.9693 12.3474 10.1132 12.702 9.22062 12.702Z" fill="white"/>
</svg>
